solid OpenSCAD_Model
  facet normal -1 0 0
    outer loop
      vertex 0 0 0
      vertex 0 22 9.65
      vertex 0 22 0
    endloop
  endfacet
  facet normal -1 -0 0
    outer loop
      vertex 0 22 9.65
      vertex 0 0 0
      vertex 0 0 9.65
    endloop
  endfacet
  facet normal -0 0 1
    outer loop
      vertex 0 22 9.65
      vertex 4 0 9.65
      vertex 4 22 9.65
    endloop
  endfacet
  facet normal 0 0 1
    outer loop
      vertex 4 0 9.65
      vertex 0 22 9.65
      vertex 0 0 9.65
    endloop
  endfacet
  facet normal -0 0 1
    outer loop
      vertex 19.6 22 9.65
      vertex 22.6 0 9.65
      vertex 22.6 22 9.65
    endloop
  endfacet
  facet normal 0 0 1
    outer loop
      vertex 22.6 0 9.65
      vertex 19.6 22 9.65
      vertex 19.6 0 9.65
    endloop
  endfacet
  facet normal 1 -0 0
    outer loop
      vertex 22.6 0 9.65
      vertex 22.6 22 0
      vertex 22.6 22 9.65
    endloop
  endfacet
  facet normal 1 0 0
    outer loop
      vertex 22.6 22 0
      vertex 22.6 0 9.65
      vertex 22.6 0 0
    endloop
  endfacet
  facet normal 0 1 0
    outer loop
      vertex 22.6 22 9.65
      vertex 19.6 22 3
      vertex 19.6 22 9.65
    endloop
  endfacet
  facet normal 0 1 0
    outer loop
      vertex 19.6 22 3
      vertex 22.6 22 0
      vertex 4 22 3
    endloop
  endfacet
  facet normal 0 1 -0
    outer loop
      vertex 22.6 22 0
      vertex 19.6 22 3
      vertex 22.6 22 9.65
    endloop
  endfacet
  facet normal 0 1 -0
    outer loop
      vertex 4 22 3
      vertex 0 22 9.65
      vertex 4 22 9.65
    endloop
  endfacet
  facet normal 0 1 0
    outer loop
      vertex 4 22 3
      vertex 0 22 0
      vertex 0 22 9.65
    endloop
  endfacet
  facet normal 0 1 0
    outer loop
      vertex 0 22 0
      vertex 4 22 3
      vertex 22.6 22 0
    endloop
  endfacet
  facet normal 0 0 -1
    outer loop
      vertex 0 0 0
      vertex 22.6 22 0
      vertex 22.6 0 0
    endloop
  endfacet
  facet normal -0 0 -1
    outer loop
      vertex 22.6 22 0
      vertex 0 0 0
      vertex 0 22 0
    endloop
  endfacet
  facet normal 0 -1 0
    outer loop
      vertex 0 0 9.65
      vertex 4 0 3
      vertex 4 0 9.65
    endloop
  endfacet
  facet normal 0 -1 0
    outer loop
      vertex 22.6 0 0
      vertex 4 0 3
      vertex 0 0 0
    endloop
  endfacet
  facet normal 0 -1 0
    outer loop
      vertex 0 0 0
      vertex 4 0 3
      vertex 0 0 9.65
    endloop
  endfacet
  facet normal 0 -1 0
    outer loop
      vertex 19.6 0 3
      vertex 22.6 0 9.65
      vertex 19.6 0 9.65
    endloop
  endfacet
  facet normal 0 -1 0
    outer loop
      vertex 19.6 0 3
      vertex 22.6 0 0
      vertex 22.6 0 9.65
    endloop
  endfacet
  facet normal 0 -1 0
    outer loop
      vertex 4 0 3
      vertex 22.6 0 0
      vertex 19.6 0 3
    endloop
  endfacet
  facet normal 1 0 0
    outer loop
      vertex 4 20 6
      vertex 4 22 9.65
      vertex 4 20 7.65
    endloop
  endfacet
  facet normal 1 0 0
    outer loop
      vertex 4 22 9.65
      vertex 4 2 7.65
      vertex 4 20 7.65
    endloop
  endfacet
  facet normal 1 0 0
    outer loop
      vertex 4 2 7.65
      vertex 4 0 9.65
      vertex 4 2 6
    endloop
  endfacet
  facet normal 1 -0 0
    outer loop
      vertex 4 0 9.65
      vertex 4 2 7.65
      vertex 4 22 9.65
    endloop
  endfacet
  facet normal 1 0 0
    outer loop
      vertex 4 22 9.65
      vertex 4 20 6
      vertex 4 22 3
    endloop
  endfacet
  facet normal 1 -0 0
    outer loop
      vertex 4 2 6
      vertex 4 22 3
      vertex 4 20 6
    endloop
  endfacet
  facet normal 1 0 0
    outer loop
      vertex 4 2 6
      vertex 4 0 3
      vertex 4 22 3
    endloop
  endfacet
  facet normal 1 0 0
    outer loop
      vertex 4 0 3
      vertex 4 2 6
      vertex 4 0 9.65
    endloop
  endfacet
  facet normal -1 0 0
    outer loop
      vertex 19.6 22 3
      vertex 19.6 20 6
      vertex 19.6 22 9.65
    endloop
  endfacet
  facet normal -1 0 0
    outer loop
      vertex 19.6 22 3
      vertex 19.6 2 6
      vertex 19.6 20 6
    endloop
  endfacet
  facet normal -1 0 0
    outer loop
      vertex 19.6 0 9.65
      vertex 19.6 2 6
      vertex 19.6 0 3
    endloop
  endfacet
  facet normal -1 0 0
    outer loop
      vertex 19.6 0 3
      vertex 19.6 2 6
      vertex 19.6 22 3
    endloop
  endfacet
  facet normal -1 0 0
    outer loop
      vertex 19.6 20 7.65
      vertex 19.6 22 9.65
      vertex 19.6 20 6
    endloop
  endfacet
  facet normal -1 0 0
    outer loop
      vertex 19.6 2 7.65
      vertex 19.6 22 9.65
      vertex 19.6 20 7.65
    endloop
  endfacet
  facet normal -1 0 0
    outer loop
      vertex 19.6 2 7.65
      vertex 19.6 0 9.65
      vertex 19.6 22 9.65
    endloop
  endfacet
  facet normal -1 0 0
    outer loop
      vertex 19.6 2 6
      vertex 19.6 0 9.65
      vertex 19.6 2 7.65
    endloop
  endfacet
  facet normal -0 0 1
    outer loop
      vertex 4 22 3
      vertex 19.6 0 3
      vertex 19.6 22 3
    endloop
  endfacet
  facet normal 0 0 1
    outer loop
      vertex 19.6 0 3
      vertex 4 22 3
      vertex 4 0 3
    endloop
  endfacet
  facet normal 1 -0 0
    outer loop
      vertex 2 2 7.65
      vertex 2 20 6
      vertex 2 20 7.65
    endloop
  endfacet
  facet normal 1 0 0
    outer loop
      vertex 2 20 6
      vertex 2 2 7.65
      vertex 2 2 6
    endloop
  endfacet
  facet normal 0 0 -1
    outer loop
      vertex 2 2 7.65
      vertex 4 20 7.65
      vertex 4 2 7.65
    endloop
  endfacet
  facet normal -0 0 -1
    outer loop
      vertex 4 20 7.65
      vertex 2 2 7.65
      vertex 2 20 7.65
    endloop
  endfacet
  facet normal 0 0 -1
    outer loop
      vertex 19.6 2 7.65
      vertex 20.6 20 7.65
      vertex 20.6 2 7.65
    endloop
  endfacet
  facet normal -0 0 -1
    outer loop
      vertex 20.6 20 7.65
      vertex 19.6 2 7.65
      vertex 19.6 20 7.65
    endloop
  endfacet
  facet normal -1 0 0
    outer loop
      vertex 20.6 2 6
      vertex 20.6 20 7.65
      vertex 20.6 20 6
    endloop
  endfacet
  facet normal -1 -0 0
    outer loop
      vertex 20.6 20 7.65
      vertex 20.6 2 6
      vertex 20.6 2 7.65
    endloop
  endfacet
  facet normal -0 0 1
    outer loop
      vertex 2 20 6
      vertex 4 2 6
      vertex 4 20 6
    endloop
  endfacet
  facet normal 0 0 1
    outer loop
      vertex 4 2 6
      vertex 2 20 6
      vertex 2 2 6
    endloop
  endfacet
  facet normal -0 0 1
    outer loop
      vertex 19.6 20 6
      vertex 20.6 2 6
      vertex 20.6 20 6
    endloop
  endfacet
  facet normal 0 0 1
    outer loop
      vertex 20.6 2 6
      vertex 19.6 20 6
      vertex 19.6 2 6
    endloop
  endfacet
  facet normal 0 1 -0
    outer loop
      vertex 4 2 6
      vertex 2 2 7.65
      vertex 4 2 7.65
    endloop
  endfacet
  facet normal 0 1 0
    outer loop
      vertex 2 2 7.65
      vertex 4 2 6
      vertex 2 2 6
    endloop
  endfacet
  facet normal 0 1 -0
    outer loop
      vertex 20.6 2 6
      vertex 19.6 2 7.65
      vertex 20.6 2 7.65
    endloop
  endfacet
  facet normal 0 1 0
    outer loop
      vertex 19.6 2 7.65
      vertex 20.6 2 6
      vertex 19.6 2 6
    endloop
  endfacet
  facet normal 0 -1 0
    outer loop
      vertex 19.6 20 6
      vertex 20.6 20 7.65
      vertex 19.6 20 7.65
    endloop
  endfacet
  facet normal 0 -1 -0
    outer loop
      vertex 20.6 20 7.65
      vertex 19.6 20 6
      vertex 20.6 20 6
    endloop
  endfacet
  facet normal 0 -1 0
    outer loop
      vertex 2 20 6
      vertex 4 20 7.65
      vertex 2 20 7.65
    endloop
  endfacet
  facet normal 0 -1 -0
    outer loop
      vertex 4 20 7.65
      vertex 2 20 6
      vertex 4 20 6
    endloop
  endfacet
endsolid OpenSCAD_Model
