solid OpenSCAD_Model
  facet normal -1 0 0
    outer loop
      vertex 0 0 0
      vertex 0 22 10.4
      vertex 0 22 0
    endloop
  endfacet
  facet normal -1 -0 0
    outer loop
      vertex 0 22 10.4
      vertex 0 0 0
      vertex 0 0 10.4
    endloop
  endfacet
  facet normal -0 0 1
    outer loop
      vertex 0 22 10.4
      vertex 4 0 10.4
      vertex 4 22 10.4
    endloop
  endfacet
  facet normal 0 0 1
    outer loop
      vertex 4 0 10.4
      vertex 0 22 10.4
      vertex 0 0 10.4
    endloop
  endfacet
  facet normal -0 0 1
    outer loop
      vertex 21 22 10.4
      vertex 24 0 10.4
      vertex 24 22 10.4
    endloop
  endfacet
  facet normal 0 0 1
    outer loop
      vertex 24 0 10.4
      vertex 21 22 10.4
      vertex 21 0 10.4
    endloop
  endfacet
  facet normal 1 -0 0
    outer loop
      vertex 24 0 10.4
      vertex 24 22 0
      vertex 24 22 10.4
    endloop
  endfacet
  facet normal 1 0 0
    outer loop
      vertex 24 22 0
      vertex 24 0 10.4
      vertex 24 0 0
    endloop
  endfacet
  facet normal 0 1 0
    outer loop
      vertex 24 22 10.4
      vertex 21 22 3
      vertex 21 22 10.4
    endloop
  endfacet
  facet normal 0 1 0
    outer loop
      vertex 21 22 3
      vertex 24 22 0
      vertex 4 22 3
    endloop
  endfacet
  facet normal 0 1 -0
    outer loop
      vertex 24 22 0
      vertex 21 22 3
      vertex 24 22 10.4
    endloop
  endfacet
  facet normal 0 1 -0
    outer loop
      vertex 4 22 3
      vertex 0 22 10.4
      vertex 4 22 10.4
    endloop
  endfacet
  facet normal 0 1 0
    outer loop
      vertex 4 22 3
      vertex 0 22 0
      vertex 0 22 10.4
    endloop
  endfacet
  facet normal 0 1 0
    outer loop
      vertex 0 22 0
      vertex 4 22 3
      vertex 24 22 0
    endloop
  endfacet
  facet normal 0 0 -1
    outer loop
      vertex 0 0 0
      vertex 24 22 0
      vertex 24 0 0
    endloop
  endfacet
  facet normal -0 0 -1
    outer loop
      vertex 24 22 0
      vertex 0 0 0
      vertex 0 22 0
    endloop
  endfacet
  facet normal 0 -1 0
    outer loop
      vertex 0 0 10.4
      vertex 2 0 8.4
      vertex 4 0 10.4
    endloop
  endfacet
  facet normal 0 -1 0
    outer loop
      vertex 0 0 10.4
      vertex 2 0 6
      vertex 2 0 8.4
    endloop
  endfacet
  facet normal 0 -1 0
    outer loop
      vertex 2 0 6
      vertex 4 0 3
      vertex 4 0 6
    endloop
  endfacet
  facet normal 0 -1 0
    outer loop
      vertex 24 0 0
      vertex 4 0 3
      vertex 0 0 0
    endloop
  endfacet
  facet normal 0 -1 -0
    outer loop
      vertex 2 0 6
      vertex 0 0 0
      vertex 4 0 3
    endloop
  endfacet
  facet normal 0 -1 0
    outer loop
      vertex 0 0 0
      vertex 2 0 6
      vertex 0 0 10.4
    endloop
  endfacet
  facet normal 0 -1 -0
    outer loop
      vertex 4 0 10.4
      vertex 2 0 8.4
      vertex 4 0 8.4
    endloop
  endfacet
  facet normal 0 -1 0
    outer loop
      vertex 21 0 6
      vertex 21 0 3
      vertex 22 0 6
    endloop
  endfacet
  facet normal 0 -1 0
    outer loop
      vertex 22 0 8.4
      vertex 21 0 10.4
      vertex 21 0 8.4
    endloop
  endfacet
  facet normal 0 -1 0
    outer loop
      vertex 21 0 10.4
      vertex 22 0 8.4
      vertex 24 0 10.4
    endloop
  endfacet
  facet normal 0 -1 0
    outer loop
      vertex 22 0 6
      vertex 24 0 10.4
      vertex 22 0 8.4
    endloop
  endfacet
  facet normal 0 -1 0
    outer loop
      vertex 24 0 0
      vertex 22 0 6
      vertex 21 0 3
    endloop
  endfacet
  facet normal 0 -1 0
    outer loop
      vertex 22 0 6
      vertex 24 0 0
      vertex 24 0 10.4
    endloop
  endfacet
  facet normal 0 -1 0
    outer loop
      vertex 4 0 3
      vertex 24 0 0
      vertex 21 0 3
    endloop
  endfacet
  facet normal 1 0 0
    outer loop
      vertex 4 20 6
      vertex 4 22 10.4
      vertex 4 20 8.4
    endloop
  endfacet
  facet normal 1 -0 0
    outer loop
      vertex 4 0 10.4
      vertex 4 20 8.4
      vertex 4 22 10.4
    endloop
  endfacet
  facet normal 1 0 0
    outer loop
      vertex 4 20 8.4
      vertex 4 0 10.4
      vertex 4 0 8.4
    endloop
  endfacet
  facet normal 1 0 0
    outer loop
      vertex 4 22 10.4
      vertex 4 20 6
      vertex 4 22 3
    endloop
  endfacet
  facet normal 1 0 0
    outer loop
      vertex 4 0 3
      vertex 4 20 6
      vertex 4 0 6
    endloop
  endfacet
  facet normal 1 0 0
    outer loop
      vertex 4 20 6
      vertex 4 0 3
      vertex 4 22 3
    endloop
  endfacet
  facet normal -1 0 0
    outer loop
      vertex 21 22 3
      vertex 21 20 6
      vertex 21 22 10.4
    endloop
  endfacet
  facet normal -1 0 0
    outer loop
      vertex 21 0 3
      vertex 21 20 6
      vertex 21 22 3
    endloop
  endfacet
  facet normal -1 -0 0
    outer loop
      vertex 21 20 6
      vertex 21 0 3
      vertex 21 0 6
    endloop
  endfacet
  facet normal -1 0 0
    outer loop
      vertex 21 20 8.4
      vertex 21 22 10.4
      vertex 21 20 6
    endloop
  endfacet
  facet normal -1 0 0
    outer loop
      vertex 21 0 10.4
      vertex 21 20 8.4
      vertex 21 0 8.4
    endloop
  endfacet
  facet normal -1 0 0
    outer loop
      vertex 21 20 8.4
      vertex 21 0 10.4
      vertex 21 22 10.4
    endloop
  endfacet
  facet normal -0 0 1
    outer loop
      vertex 4 22 3
      vertex 21 0 3
      vertex 21 22 3
    endloop
  endfacet
  facet normal 0 0 1
    outer loop
      vertex 21 0 3
      vertex 4 22 3
      vertex 4 0 3
    endloop
  endfacet
  facet normal 1 -0 0
    outer loop
      vertex 2 0 8.4
      vertex 2 20 6
      vertex 2 20 8.4
    endloop
  endfacet
  facet normal 1 0 0
    outer loop
      vertex 2 20 6
      vertex 2 0 8.4
      vertex 2 0 6
    endloop
  endfacet
  facet normal 0 0 -1
    outer loop
      vertex 2 0 8.4
      vertex 4 20 8.4
      vertex 4 0 8.4
    endloop
  endfacet
  facet normal -0 0 -1
    outer loop
      vertex 4 20 8.4
      vertex 2 0 8.4
      vertex 2 20 8.4
    endloop
  endfacet
  facet normal 0 0 -1
    outer loop
      vertex 21 0 8.4
      vertex 22 20 8.4
      vertex 22 0 8.4
    endloop
  endfacet
  facet normal -0 0 -1
    outer loop
      vertex 22 20 8.4
      vertex 21 0 8.4
      vertex 21 20 8.4
    endloop
  endfacet
  facet normal -1 0 0
    outer loop
      vertex 22 0 6
      vertex 22 20 8.4
      vertex 22 20 6
    endloop
  endfacet
  facet normal -1 -0 0
    outer loop
      vertex 22 20 8.4
      vertex 22 0 6
      vertex 22 0 8.4
    endloop
  endfacet
  facet normal -0 0 1
    outer loop
      vertex 2 20 6
      vertex 4 0 6
      vertex 4 20 6
    endloop
  endfacet
  facet normal 0 0 1
    outer loop
      vertex 4 0 6
      vertex 2 20 6
      vertex 2 0 6
    endloop
  endfacet
  facet normal -0 0 1
    outer loop
      vertex 21 20 6
      vertex 22 0 6
      vertex 22 20 6
    endloop
  endfacet
  facet normal 0 0 1
    outer loop
      vertex 22 0 6
      vertex 21 20 6
      vertex 21 0 6
    endloop
  endfacet
  facet normal 0 -1 0
    outer loop
      vertex 21 20 6
      vertex 22 20 8.4
      vertex 21 20 8.4
    endloop
  endfacet
  facet normal 0 -1 -0
    outer loop
      vertex 22 20 8.4
      vertex 21 20 6
      vertex 22 20 6
    endloop
  endfacet
  facet normal 0 -1 0
    outer loop
      vertex 2 20 6
      vertex 4 20 8.4
      vertex 2 20 8.4
    endloop
  endfacet
  facet normal 0 -1 -0
    outer loop
      vertex 4 20 8.4
      vertex 2 20 6
      vertex 4 20 6
    endloop
  endfacet
endsolid OpenSCAD_Model
